<?xml version="1.0" encoding="UTF-8"?><svg xmlns="http://www.w3.org/2000/svg" xmlns:xlink="http://www.w3.org/1999/xlink" height="73.8" preserveAspectRatio="xMidYMid meet" version="1.0" viewBox="-0.1 0.0 285.5 73.8" width="285.5" zoomAndPan="magnify"><g id="change1_1"><path d="M1 1L4.718 4.588 8.435 8.176 4.718 11.764 1 15.352 4.718 18.94 8.435 22.528 4.718 26.116 1 29.704 4.718 33.292 8.435 36.88 4.718 40.468 1 44.056 4.718 47.644 8.435 51.232 4.718 54.82 1 58.408 4.718 61.996 8.435 65.584 4.718 69.172 1 72.76 284.311 72.76 280.594 69.172 276.876 65.584 280.594 61.996 284.311 58.408 280.594 54.82 276.876 51.232 280.594 47.644 284.312 44.056 280.594 40.468 276.876 36.88 280.594 33.292 284.312 29.704 280.594 26.116 276.876 22.528 280.594 18.94 284.312 15.352 280.594 11.764 276.876 8.176 280.594 4.588 284.312 1 284.312 1z" fill="#FCB1B1"/></g><g id="change2_1"><path d="M284.311,73.761H1c-0.408,0-0.774-0.247-0.927-0.626c-0.153-0.378-0.061-0.811,0.233-1.094l6.69-6.457 l-6.69-6.456C0.11,58.939,0,58.68,0,58.408s0.11-0.531,0.306-0.72l6.69-6.456l-6.69-6.456C0.11,44.588,0,44.328,0,44.057 s0.11-0.531,0.306-0.72l6.69-6.457l-6.69-6.456C0.11,30.235,0,29.976,0,29.704s0.11-0.531,0.306-0.72l6.69-6.456l-6.69-6.457 C0.11,15.883,0,15.624,0,15.352s0.11-0.531,0.306-0.72l6.69-6.456L0.306,1.72C0.012,1.437-0.08,1.003,0.073,0.625S0.592,0,1,0 h283.311c0.407,0,0.774,0.248,0.927,0.625c0.153,0.378,0.062,0.811-0.232,1.094l-6.688,6.457l6.688,6.457 c0.195,0.188,0.306,0.448,0.306,0.719s-0.11,0.531-0.306,0.719l-6.688,6.457l6.688,6.456c0.195,0.188,0.306,0.448,0.306,0.72 s-0.11,0.531-0.306,0.72l-6.689,6.456l6.689,6.457c0.195,0.188,0.306,0.448,0.306,0.72s-0.11,0.531-0.306,0.72l-6.688,6.456 l6.688,6.456c0.195,0.188,0.306,0.448,0.306,0.72s-0.11,0.531-0.306,0.72l-6.689,6.456l6.689,6.457 c0.294,0.283,0.386,0.716,0.232,1.095C285.086,73.514,284.718,73.761,284.311,73.761z M3.476,71.761h278.359l-5.653-5.457 c-0.195-0.188-0.306-0.448-0.306-0.72s0.11-0.531,0.306-0.72l6.689-6.456l-6.689-6.456c-0.195-0.188-0.306-0.448-0.306-0.72 s0.11-0.531,0.306-0.72l6.689-6.456l-6.689-6.457c-0.195-0.188-0.306-0.448-0.306-0.72s0.11-0.531,0.306-0.72l6.689-6.456 l-6.689-6.456c-0.195-0.188-0.306-0.448-0.306-0.72s0.11-0.531,0.306-0.72l6.689-6.457l-6.689-6.456 c-0.195-0.188-0.306-0.448-0.306-0.72s0.11-0.531,0.306-0.72L281.836,2L3.476,2L9.13,7.457c0.195,0.188,0.306,0.448,0.306,0.72 s-0.11,0.531-0.306,0.72l-6.69,6.456l6.69,6.457c0.195,0.188,0.306,0.448,0.306,0.72s-0.11,0.531-0.306,0.72l-6.69,6.456l6.69,6.456 c0.195,0.188,0.306,0.448,0.306,0.72s-0.11,0.531-0.306,0.72l-6.69,6.457l6.69,6.456c0.195,0.188,0.306,0.448,0.306,0.72 s-0.11,0.531-0.306,0.72l-6.69,6.456l6.69,6.456c0.195,0.188,0.306,0.448,0.306,0.72s-0.11,0.531-0.306,0.72L3.476,71.761z" fill="#231F20"/></g></svg>