<?xml version="1.0" encoding="UTF-8"?><!DOCTYPE svg PUBLIC "-//W3C//DTD SVG 1.0//EN" "http://www.w3.org/TR/2001/REC-SVG-20010904/DTD/svg10.dtd" []><svg xmlns="http://www.w3.org/2000/svg" xmlns:xlink="http://www.w3.org/1999/xlink" height="484" preserveAspectRatio="xMidYMid meet" version="1.0" viewBox="-4.5 0.0 504.5 483.7" width="504" zoomAndPan="magnify"><g id="change1_1"><path d="M261.8,373.41c-15.14-5.71-27.88,5.67-39.93,12.85c-12.87,7.32-25.32,15.03-37.01,24.05 c-26.12,18.86-55.31,32.31-82.79,48.92c5.94-25.62,10.09-51.68,14.99-77.51c2.98-10.3,6.22-20.52,8.52-31.02 c2.91-13.68,14.05-32.22,1.6-43.9c-3.3,2-9.7,9.07-8.66,13.2c0.17,9.48-2.96,18.81-4.16,28.25c-3.99,16.14-9.79,31.81-12.09,48.45 c-5.5,19.25-7.8,39.17-12.35,58.64c-2.04,8.25-12.02,28.33,5.17,24.54c41.68-21.04,79.92-48.22,119.94-72.12 c11.63-6.93,23.62-13.85,35.8-19.48c5.14-3.31,6.43-10.62,12.11-13.83C262.57,374.14,262.2,373.75,261.8,373.41z"/><path d="M500,184.24c-1.56-3.32-9.06-10.1-12.93-8.9c-9.2,0.31-18.3-2.44-27.51-3.09c-15.86-3.06-31.47-7.31-47.87-7.19 c-26.17-2.6-52.64-3.98-77.53-13.24c-11.06-17.18-17.3-36.45-27.16-54.41c-10.1-16.44-19.56-33.27-28.66-50.21 c-6.25-11.59-12.08-23.34-17.71-35.25c-3.1-4.58-8.75-5.71-13.77-8.91c-0.35-1-0.82-2.01-1.48-3.03c-4.32,1.82-5.75,5.98-8.97,8.99 c-5.01,4.23-4.04,10.88-6.33,16.48c-3.57,10.44-7.3,20.83-10.93,31.25c-2.89,8.3-6.46,16.25-10.62,24.03 c-10.73,24.35-19.66,49.63-30.55,73.97c-22.87,5.29-46.16,7.79-69.63,7.9c-33.5,2.09-66.76,4.73-100.2,8.43 c-12.64,2.87-8.87,15.49-0.22,21.12c29.5,27.86,59.05,58.11,88.24,86.43c16.43,16.63,12.42,17.94,36.49,26.65 c-2.97-20.47-21.29-33.59-35.54-46.91c-25.43-25.66-53.3-48.71-78.54-74.58c55.44-3.16,111.21-6.44,165.88-16.97 c1.9-0.4,3.56-1.7,4.34-3.63c8.13-19.92,15.18-40.25,22.92-60.29c6.28-13.97,12.72-27.87,18.22-42.18 c5.4-13.38,13-26.04,16.14-40.22c8.26,13.29,15.36,27.2,22.91,40.86c9.03,13.77,18.19,27.57,25.94,42.11 c8.29,17.45,13.8,35.86,24.11,52.58c2.22,3.3,3.77,8.31,8,9.52c22.44,4.6,44.89,9.48,67.83,10.82c10.75,0.69,22.13,0.26,32.83,1.45 c10.02,1.79,19.94,4.15,30,5.79c10.07,1.91,19.81,6.74,30.25,5.78c-13.16,6.53-21.14,19-31.91,28.55 c-29.24,25.11-58.74,50.27-89.25,73.94c-3.54,3.26,0.12,8.76,0.21,12.83c1.47,7.89,2.11,15.94,3.64,23.82 c8.08,39.8,17.9,81.01,26.92,120.61c-20.61-12.18-41.73-23.51-60.85-37.98c-16.34-8.29-57.26-46.23-73.85-30.5 c1.94,3.29,5.34,4.35,7.93,7.35c3.56,4.81,9.84,4.14,14.73,6.89c9.44,4.47,18.72,9.67,27.97,14.94 c19.35,12.54,37.77,26.68,58.13,37.82c9.08,4.68,28.79,21.88,37.43,21.32c10.84-3.1-0.03-21.22-0.46-28.99 c-4.54-16.41-7.13-33.17-9.65-49.97c-5.72-30.59-13.46-60.69-19.01-91.31c35.98-30.26,75.86-57.1,109.28-90.86 c4.78-5.77,5.13-12.98,7.39-20.48C497.71,186.66,498.85,185.7,500,184.24z"/></g></svg>