<?xml version="1.0" encoding="UTF-8"?><!DOCTYPE svg PUBLIC "-//W3C//DTD SVG 1.0//EN" "http://www.w3.org/TR/2001/REC-SVG-20010904/DTD/svg10.dtd" []><svg xmlns="http://www.w3.org/2000/svg" xmlns:xlink="http://www.w3.org/1999/xlink" height="425.1" preserveAspectRatio="xMidYMid meet" version="1.0" viewBox="-0.1 -0.0 500.1 425.1" width="500.1" zoomAndPan="magnify"><g id="change1_1"><path d="M499.8,254.4l-0.6,0.5l-2.3,1.9l-9.1,7.6L464,284.6l19.2-17.5c0.1-0.2,0.1-0.4,0-0.5c-0.1-0.2-0.4-0.2-0.6-0.1l-35.2,28.2 l20.7-22.1c0.2-0.2,0.2-0.5,0-0.7c-0.2-0.2-0.5-0.2-0.7,0l-8.5,6c11-12.2,28-43.7,26.6-45.7c-0.5-0.7-1.5-1-2.3-0.5l-2.5,1.5 l7.3-8.7c0.3-0.3,0.3-0.8,0-1.2c-0.3-0.4-0.9-0.4-1.3-0.1c0,0,0,0,0,0l-21.6,18.6l18.3-22.4c0.6-0.7,0.6-1.9-0.2-2.5 c-0.7-0.6-1.7-0.6-2.4,0L426.4,265l-4.9,2.9l69.5-72.3c0.4-0.5,0.4-1.2,0-1.6c-0.4-0.4-1-0.4-1.5-0.1 c-13.8,10.1-27.4,20.8-40.8,32.1l25.2-29.5c0.4-0.5,0.5-1.2,0.3-1.8c2.3-1.9,4.6-3.8,6.9-5.7c0.7-0.6,0.8-1.7,0.2-2.4 c-0.5-0.6-1.4-0.8-2.1-0.4c-7.3,4.6-14.5,9.4-21.5,14.4l31.4-37.6c0.5-0.6,0.4-1.4-0.2-1.9c-0.5-0.4-1.2-0.4-1.7,0 c-44.7,34.7-86,73.8-123.1,116.6l37.9-55.8l0,0c26.1-31.4,54-61.3,83.6-89.6c0.7-0.7,0.7-1.9,0-2.6c-0.6-0.6-1.5-0.7-2.2-0.3 c-11.2,6.5-22.1,13.4-32.7,20.8l0.3-0.5c0.5-0.7,0.3-1.7-0.4-2.2c-0.6-0.4-1.5-0.3-2.1,0.2l-11.1,11.9c-5.2,3.8-10.3,7.7-15.3,11.6 c-19.5,15.3-38.2,31.8-56.2,49.1c-3.3,3.2-6.6,6.3-9.8,9.5l93.2-120c0.6-0.7,0.5-1.8-0.3-2.4c-0.7-0.5-1.6-0.5-2.2,0.1l-23.6,21.6 c-16.1,8.6-31.5,18.3-46.3,29c-2.5,1.8-5,3.6-7.4,5.5c11.9-15,24-29.6,36.1-44.2c0.4-0.5,0.4-1.2,0.1-1.7c-0.1-0.2-0.2-0.3-0.4-0.4 L446.8,72c0.7-0.7,0.7-1.9,0-2.5c-0.6-0.6-1.6-0.7-2.4-0.1c-17.3,12.4-34.2,25.3-50.9,38.7l2.2-2.2c0.7-0.7,0.8-1.9,0-2.7 c-0.7-0.7-1.8-0.8-2.5-0.2c-28.6,22-56.1,45.3-82.5,69.7L387.3,76c0.6-0.8,0.5-2-0.3-2.6c-0.6-0.5-1.5-0.5-2.1-0.1 c-25.4,16.2-50.1,33.5-74.1,51.9l71.2-73.5c0.7-0.7,0.7-1.9,0-2.7c-0.6-0.6-1.6-0.7-2.3-0.3c-10.3,6.4-20.6,12.9-30.7,19.6 c0.9-1.3,1.9-2.6,2.8-4c0.3-0.4,0.3-0.8,0.1-1.2c-0.3-0.6-1-0.9-1.6-0.7c-18.8,7.8-36.7,17.6-53.3,29.4 c-16.2,11.5-31.5,24.1-45.8,37.9c-17.1,16.3-32.8,33.5-47.8,50.8l-4.5,4c12.5-17.5,24.8-34.6,36.9-51.5l84.4-98 c0.7-0.8,0.5-2-0.2-2.6c-0.7-0.6-1.6-0.6-2.3,0c-13.9,11.2-27.6,22.5-41.1,34.1c-1.2,0.8-2.5,1.6-3.7,2.3 c18.3-17.7,37.2-34.6,56.6-50.6c0.7-0.6,0.8-1.6,0.2-2.3c-0.5-0.6-1.4-0.8-2.1-0.3c-8,4.9-15.8,10-23.5,15.3l6.4-7.3 c0.7-0.7,0.6-1.8-0.1-2.5c-0.6-0.5-1.5-0.6-2.2-0.1c-50.2,33.6-97.9,70.8-142.8,111.3L204,80c19.2-19.8,39.5-38.4,60.8-55.8 c0.6-0.5,0.7-1.4,0.2-2c-0.5-0.6-1.4-0.7-2-0.2c0,0,0,0,0,0c-14.4,11.6-28.4,23.4-42.2,35.4l11.1-14.9l33.8-39.7 c0.6-0.7,0.5-1.7-0.2-2.3c-0.6-0.5-1.4-0.5-2-0.1c-26.2,18.8-51.4,38.5-75.7,59.1L206.7,39c0.5-0.6,0.5-1.4,0-2 c-0.5-0.6-1.5-0.7-2.1-0.1c0,0,0,0,0,0l-14.3,12.9c-14.6,9.4-28.6,19.4-42.1,29.9l57.6-61c0.5-0.6,0.4-1.4-0.1-1.9 c-0.5-0.4-1.2-0.5-1.8,0l-99,88.4L119,86.3l54.8-57.1c0.5-0.5,0.5-1.2,0-1.7c-0.5-0.5-1.2-0.5-1.7,0l-34.9,34.3l4.2-5.6 c0.3-0.5,0.1-1.2-0.5-1.4c-0.3-0.2-0.8-0.1-1.1,0.1l-55.7,53.9l22.6-26.9l14.8-15.9c0.3-0.3,0.3-0.8,0-1.2c-0.1-0.1-0.2-0.1-0.3-0.2 l17.2-20.4c0.3-0.4,0.3-1.1-0.2-1.4c-0.4-0.3-0.9-0.3-1.2,0L86.6,85.6l23.7-28.7c0.2-0.2,0.2-0.6,0-0.8c-0.2-0.2-0.6-0.2-0.9,0 L56,111.6l-16,13.6l33.8-42.7l2.1-2.7l27-29.1c0.3-0.3,0.2-0.8-0.1-1.1c-0.3-0.2-0.7-0.2-1,0L89,63.2l1.3-1.7l0.8-1.1 c0.2-0.2,0.3-0.4,0.3-0.4l-0.3,0.3l-0.9,1.1l-2.7,3.3l-58.1,61.5L85.5,59c0.2-0.2,0.2-0.5,0-0.7c-0.2-0.2-0.5-0.2-0.7,0l-39.2,43.3 l9.1-10.3l8.9-10.2l2.2-2.6c0.2-0.3,0.4-0.5,0.5-0.7l0.2-0.2c0,0-0.1,0.1-0.2,0.2l-0.6,0.6l-2.3,2.5l-9,10.1l-35.6,40.1 c-0.1,0.1-0.1,0.3,0,0.4c0.1,0.1,0.3,0.1,0.5,0L69.9,76l-54.3,64.9c-0.2,0.2-0.3,0.6,0,0.9c0.1,0.1,0.2,0.2,0.4,0.2 c-5.2,5.6-10.5,11.2-15.8,16.9c-0.3,0.3-0.3,0.8,0,1.2c0.3,0.4,0.9,0.4,1.2,0.1c0,0,0,0,0,0L31.2,135l-10.8,13.4 c-0.1,0.2-0.1,0.4,0,0.6c0.2,0.2,0.4,0.2,0.6,0l29.3-30.2l23.5-19.9l-42.3,50.9c-0.2,0.3-0.2,0.8,0.1,1c0.3,0.2,0.7,0.2,0.9,0 l67.7-64.6l-65.8,70.5c-0.4,0.4-0.4,1,0,1.3c0.4,0.4,1,0.4,1.3,0l21.5-20.7c-5.8,6.9-11.7,13.8-17.5,20.8c-0.4,0.4-0.4,1.1,0.1,1.5 c0.4,0.4,1.1,0.4,1.5-0.1l0,0l70.4-69.3l-59.1,61.4c-0.5,0.5-0.5,1.2,0,1.7c0.5,0.5,1.3,0.6,1.8,0.1c0,0,0,0,0,0l34.6-30.8 l-36.4,48.6c-0.4,0.5-0.3,1.2,0.2,1.6c0.5,0.4,1.2,0.3,1.6-0.2c19.5-23.1,40.6-44.7,63.3-64.7l-48.9,51.7c-0.5,0.6-0.5,1.5,0,2 c0.5,0.5,1.4,0.5,1.9,0L160.1,81c-4.5,4.8-8.9,9.8-13.3,14.7c-23.9,22.2-46.6,45.2-68.2,69c0.5-0.9,1.1-1.7,1.5-2.5 c2.2-3.7,3.9-6.6,5-8.5l1.2-2.1c0.3-0.5,0.4-0.7,0.4-0.7s-0.2,0.2-0.5,0.7c-0.3,0.5-0.7,1.2-1.3,2.1l-5.2,8.4 c-0.7,1.2-1.5,2.5-2.3,3.9c-23.1,25.4-44.9,51.4-65.4,78.3c-0.5,0.7-0.3,1.7,0.4,2.2c0.6,0.4,1.5,0.4,2-0.2l86.6-93.4 c-21.9,30-41.6,61.6-59,94.4c-0.4,0.6-0.2,1.4,0.4,1.8c0.6,0.4,1.4,0.2,1.8-0.4c41.1-53.1,86.1-103,134.7-149.3L47.8,253.5v0.1 c-0.8,0.6-0.9,1.6-0.4,2.4c0.6,0.8,1.6,0.9,2.4,0.4c0.2-0.1,0.3-0.3,0.5-0.5l0,0c21.6-25.5,44.4-50.3,68.2-74.3 c-16,24.2-30.6,49.4-43.5,75.4c-0.4,0.7-0.1,1.7,0.6,2.1c0.7,0.3,1.5,0.2,1.9-0.4c34.2-40.3,69-81.3,107-120.4 c2.4-2,4.7-4.1,7.1-6.1c18.1-15.4,37.3-30.6,57.7-45l-4.1,4.6c-6.4,6.6-12.7,13.3-18.9,20.1C159.3,175,98.2,244.2,43.7,318.6 c-0.6,0.8-0.5,1.9,0.3,2.6s1.9,0.5,2.6-0.3l0,0l109.2-123c-28.6,39-54.3,79.9-77,122.5c-0.4,0.7-0.2,1.6,0.4,2.1 c0.7,0.6,1.8,0.6,2.4-0.2c40.8-46.4,82.1-93.3,127.4-137.3c22.6-22,46.3-43.3,71.2-63.1c5.2-4.1,10.4-8.1,15.7-12.1 c8-5.9,16-11.7,24.1-17.4c5.3-3.7,10.7-7.3,16.2-10.8l-5.8,8.2c-28.4,27.5-55.7,56.4-81.9,86.8c-51.3,45.8-97.9,96.5-139.4,151.3 c-0.6,0.9-0.4,2,0.5,2.6c0.7,0.5,1.8,0.4,2.4-0.2l77.8-80.3c-16.2,21.9-31.8,44.3-46.8,67.3c-0.5,0.9-0.3,2,0.6,2.5 c0.8,0.5,1.8,0.3,2.4-0.4c37.2-50.7,78.2-98.5,122.8-142.9c-9.5,13.4-19.1,26.9-28.8,40.5c-23.1,31.5-43.5,64.8-61.2,99.6 c-0.5,0.9-0.2,2,0.7,2.5c0.8,0.5,1.9,0.2,2.4-0.5c11-14.1,22.3-28,33.9-41.6c0.1,1.3,0.2,2.5,0.3,3.8c0,0.3,0.2,0.6,0.5,0.9 c0.3,0.3,0.7,0.4,1.1,0.3c-17.9,21.8-35,44.2-51.5,67.3c-0.6,0.8-0.4,2,0.4,2.6c0.8,0.6,2,0.4,2.6-0.4c26-32.9,52.2-65.9,78.5-99.1 c9.4-10.7,18.9-21.1,28.6-31.3c13.9-13.2,28.4-26.1,43.3-38.5c-31.5,37.5-60.6,77.1-87.1,118.4l-18.7,20.4c-0.7,0.7-0.7,1.8,0,2.5 c0.7,0.7,1.8,0.7,2.5,0L317,231.4c-14.1,22-26.2,45.2-36,69.4c-0.1,0.1-0.1,0.3-0.1,0.5c-6.2,9.6-12.3,19.2-18.1,28.9 c-0.5,0.9-0.2,2,0.7,2.6c0.8,0.4,1.7,0.3,2.3-0.4c15.6-17.5,31.1-35,46.9-52.1l-56,72.3c-0.5,0.7-0.4,1.6,0.2,2.2 c0.7,0.6,1.7,0.6,2.3-0.1c0,0,0,0,0,0l153.6-164c4.3-3.2,8.7-6.3,13.1-9.3c-7.7,11.4-15.4,22.7-23.1,34 c-27.2,32.4-52.5,66.4-75.8,101.7c-0.5,0.9-0.3,2,0.6,2.5c0.7,0.5,1.7,0.3,2.3-0.3c0.6-0.6,1.2-1.3,1.8-1.9 c-25.7,33.4-49,68.6-69.6,105.3c-0.4,0.7-0.2,1.6,0.5,2s1.6,0.2,2-0.5l83.7-123.3l1.8-2.2c25.9-25.4,53.3-49.3,82-71.6l-61.3,73.5 c-16.6,18.2-32.6,37.3-47.9,57.5c-0.4,0.5-0.3,1.3,0.2,1.7c0.5,0.4,1.3,0.4,1.8-0.2l49.6-59.4c7.9-8.6,15.9-17,24.1-25.1 c-2.3,3.5-4.5,7-6.7,10.5c-0.3,0.4-0.3,1-0.1,1.5l-30,35.2c-0.6,0.7-0.6,1.9,0.2,2.5c0.4,0.4,1,0.5,1.6,0.4l-21.4,22.3 c-0.3,0.4-0.3,1,0,1.4c0.4,0.4,1,0.5,1.5,0.1l99.1-85.6c-8.8,10.7-17.6,21.5-26.3,32.1c-0.6,0.7-0.5,1.9,0.2,2.5 c0.6,0.5,1.6,0.5,2.2,0l14-10.9L399.3,327c-0.3,0.3-0.3,0.8,0,1.1c0.3,0.3,0.8,0.3,1.1,0l31.6-30.1l10.1-7.2l-4.6,5.4 c-0.6,0.8-0.4,1.9,0.3,2.4c0.7,0.5,1.7,0.5,2.3-0.1l15.6-17.3l8.2-5.8l-21.7,23.3c-0.2,0.2-0.1,0.5,0.1,0.7c0.2,0.1,0.4,0.1,0.6,0 l31.1-25l-21.8,20.2c-0.1,0.1-0.1,0.3,0,0.4c0.1,0.1,0.3,0.1,0.4,0l35.5-30.4l9-7.8l2.2-1.9L499.8,254.4c0.1-0.1,0.2-0.1,0.2-0.1 L499.8,254.4z M482.9,234.8c0.9,1.3-22,25.9-32.7,34.2l23.8-28.3C477.3,238.9,479.7,236.8,482.9,234.8z M476.1,235.6l-3.9,2.3 l7.2-6.2L476.1,235.6z M397.4,286.2l8.4-5l-13.5,14.1l-11,9.7L397.4,286.2z M466.7,234.1l-11.2,13.7l-12.8,7.6L466.7,234.1z M448.4,256l-89.6,77.2l22.4-23.3l47.9-42.5L448.4,256z M413,276.9l-0.7,0.6l0.5-0.5L413,276.9z M479.6,204.2l-65,67.9l-10.4,6.1 l34.8-40.8C452.3,225.8,465.8,214.7,479.6,204.2L479.6,204.2z M404.7,272c2-3,4.1-6,6.3-9c2.4-2.3,4.8-4.6,7.3-6.9L404.7,272z M419.1,252c12.3-15.9,25.8-30.7,40.5-44.4l-29,34C426.8,245,423,248.5,419.1,252z M343.4,300.1c-0.8,0.8-1.6,1.6-2.3,2.4 c0.7-1,1.4-2,2-3C343.2,299.7,343.3,299.9,343.4,300.1L343.4,300.1z M478.6,171.4l-29.6,35.5c-14.1,10.3-27.6,21.2-40.7,32.4 c-9.8,8.3-19.4,16.9-28.9,25.5C409.9,231.1,443.1,199.9,478.6,171.4z M471.2,141c-6.3,6.2-12.5,12.5-18.6,18.8 c-5.1,3.1-10.1,6.3-15.1,9.6l7.2-10.6C453.4,152.6,462.2,146.7,471.2,141z M422,176l-11.5,12.3c-9.8,7.2-19.4,14.6-28.7,22.2 C394.8,198.5,408.2,187,422,176z M426.8,131.4L426.8,131.4c0.4-0.4,0.6-0.9,0.6-1.4l6.8-6.3l-96.7,124.7 c-14.8,13.2-29.2,26.6-43.5,40C332.5,231.5,377.1,178.9,426.8,131.4z M286.5,299.6c7.9-7.4,15.8-14.8,23.8-22.3 c-11.1,12-22.1,24.1-32.9,36.4C280.4,309,283.4,304.2,286.5,299.6z M379.1,161.2c10.3-7.5,21-14.5,31.9-21l-76.9,70.6 c1.4-2,2.7-3.9,4.1-5.9c7-9.9,14.2-19.5,21.6-29C366.2,170.9,372.6,166,379.1,161.2L379.1,161.2z M395.6,122.6 c-17.1,11.3-33.6,23-49.6,35.3c7.5-8.4,15.1-16.6,22.8-24.7c20.5-17.5,41.5-34.2,62.9-50.1C419.8,96.2,407.7,109.4,395.6,122.6 L395.6,122.6z M359.9,171.1c-5.3,4.3-10.6,8.6-15.8,13.1l43.1-47.1C378,148.3,368.9,159.6,359.9,171.1z M371.2,125.2 c-1.9,2-3.8,4-5.8,6.1c-30.2,25.8-59.1,53.2-86.9,82.1l16-20.2C319,169.6,344.6,146.9,371.2,125.2L371.2,125.2z M218.7,267.8 c0.1-1.2,0.3-2.4,0.5-3.6c1.1-5.4,2.7-10.6,4.9-15.6c1.5-3.4,3.1-6.7,4.9-9.9c36.1-52.8,79-100.5,127.8-141.9 c0.3-0.3,0.5-0.7,0.6-1.1c6.6-4.5,13.2-8.9,19.9-13.3l-85.5,108C266.3,215.3,241.9,241,218.7,267.8L218.7,267.8z M215.7,271.3 c-8.3,9.7-16.4,19.4-24.4,29.3c8.8-16.2,18.2-32,28.2-47.4c-1.2,3.4-2.1,6.9-2.8,10.5C216.2,266.2,215.9,268.8,215.7,271.3 L215.7,271.3z M290.7,150.2c2.4-3.4,4.9-6.8,7.3-10.3c8.7-6.9,17.4-13.6,26.2-20.2C312.9,129.6,301.7,139.8,290.7,150.2L290.7,150.2 z M359.6,67.3c0.5-0.5,0.7-1.2,0.5-1.8c2.7-1.8,5.5-3.5,8.2-5.3l-51.7,53.4L329,96.3C339.1,86.4,349.3,76.8,359.6,67.3L359.6,67.3z M252.8,131.5c14.2-13.7,29.4-26.2,45.5-37.6C313.6,83.1,329.9,74,347,66.6l-4,5.7c-43.9,29.3-85.9,61.3-125.7,96 C228.6,155.7,240.3,143.4,252.8,131.5z M98.9,291.3c0.4-0.1,0.8-0.3,1.1-0.6c25.2-28.9,51.7-56.6,79.8-83.2 c-1.7,2.4-3.4,4.8-5.2,7.2c0,0.1-0.1,0.2-0.1,0.3c-29.6,30.7-57.7,62.3-85.4,93.8C92.3,302.9,95.6,297,98.9,291.3z M190.9,191.9 c-11.2,10.3-22.3,20.9-33.1,31.6l62-72L190.9,191.9z M303.6,48.6c-14.6,16.9-29.2,33.9-43.8,50.8L285,64.2 C291.2,59,297.4,53.7,303.6,48.6z M266,75.8l-1.7,1.5l1.1-1.1L266,75.8z M308.1,32c-8.6,7.5-17.1,15.1-25.5,22.9l12.1-13.6 C299.1,38.3,303.6,35.2,308.1,32L308.1,32z M298.5,31.8l-7,7.9c-12.6,9.1-24.8,18.6-36.6,28.5c-22.8,19-44.3,39.1-64.8,59.9 c-5.9,6-11.8,12-17.5,18.1c-19,16.8-37,33.5-54.4,49.8l36.5-49.3C199.7,105,247.7,66.6,298.5,31.8L298.5,31.8z M159.3,137.7 c-6.2,5.7-12.4,11.4-18.5,17.3c6.4-8.7,13-17.3,19.7-25.7c11.3-14,23-27.6,35.2-40.5C184,104.5,171.8,120.9,159.3,137.7z M215.7,61.8l-1.5,1.4l4.1-4.8L215.7,61.8z M254.2,11l-14.4,16.9c-38.6,29.8-75.5,61.6-110.7,95.3c-2.1,2-4.2,4-6.2,6 c14.9-16,29.6-31.9,44.2-47.7C194.8,56.9,223.8,33.4,254.2,11z M11.5,149.3l60.7-65.5l-35,43.7L11.5,149.3z M26.4,142.2 c2.6-3.3,5.2-6.6,7.7-9.7l9-7.6L26.4,142.2z M63.7,105l35.6-36.7c-6,7.2-12.1,14.6-18.4,22.1L63.7,105z M129.1,52l-18.7,22.2 l-69.7,66.7L79.6,94L129.1,52z M59.9,132.1l18.6-19.9L69.4,123L59.9,132.1z M132.1,65.4l-4.8,6.4l-70.7,69.7l15.5-18.4L132.1,65.4z M77.2,129.8c10-10.5,19.9-20.8,29.8-31l-10.1,13.5L77.2,129.8z M71.1,150.3l26.1-34.9l85-75.7l-49.4,52.2 C110.9,109.9,90.3,129.5,71.1,150.3L71.1,150.3z M177.9,60.9l-82.6,74.6c13.9-14.8,27.8-29.4,41.5-43.9 C150,81,163.7,70.7,177.9,60.9z M172,71.9l-5.2,5.6l-0.7,0.7C168.1,76,170.1,74,172,71.9z M127.3,118.8c-2.6,3.2-5.1,6.4-7.7,9.6 l-54.4,58.6c1.7-2.9,3.4-5.6,4.9-8.2C88.3,158.3,107.4,138.3,127.3,118.8z M63.5,188.8l-24.2,26.1c9.5-11.6,19.3-23,29.2-34.3 L63.5,188.8z M51.9,234.5c18.8-33.7,40-66,63.5-96.7c4.6-4.5,9.4-9.2,14.4-13.9c33.7-32.2,69-62.6,105.8-91.1l-40.4,47.4 C143.6,127.9,95.6,179.4,51.9,234.5z M201.4,78.4l-2.2,2.3l1.1-1.3L201.4,78.4z M112.2,183.1c10.5-12.4,21-24.8,31.5-37.1 c-5.1,6.7-10,13.6-14.9,20.5C123.2,172,117.7,177.5,112.2,183.1z M83.9,246.4c13.7-26.3,29-51.7,45.9-76.1c6-5.9,12-11.7,18.1-17.4 l-37,49.8c-0.2,0.3-0.2,0.8,0.1,1.1c0.3,0.3,0.9,0.3,1.2,0c0,0,0,0,0,0c14.9-13.9,30.2-28.2,46.2-42.7 C132.6,189.3,108,218,83.9,246.4L83.9,246.4z M199.8,122.8c18.1-18,37.1-35.5,57.1-52.1c7.8-6.5,15.8-12.9,24-19.1l-25.8,29 C235.6,94,217.3,108.3,199.8,122.8L199.8,122.8z M74.7,283.8c37.7-48.3,78.3-94.2,121.6-137.5c-2.1,2.5-4.2,5-6.2,7.5 c-0.7,0.8-1.3,1.6-1.9,2.4L74.7,283.8z M234.6,109.1c14.3-13.4,29-26.5,43.9-39.3c-11.2,15.6-22.5,31.4-34.1,47.5L108.5,275 c23.7-39.3,50-76.9,78.8-112.6C203.1,144.6,218.9,126.8,234.6,109.1L234.6,109.1z M194.1,194.9c1.1-1.3,2.3-2.7,3.4-4 c2.6-2.4,5.2-4.7,7.8-7C201.5,187.6,197.8,191.3,194.1,194.9L194.1,194.9z M341.9,78.2l2.6-1.6c-1.5,1.4-2.9,2.7-4.3,4.1L341.9,78.2 z M318.5,106.7l-13.7,19.2l-16.1,16.7c-6.6,5.4-13.2,10.8-19.7,16.4C285.1,141,301.6,123.6,318.5,106.7z M263.6,168.4L236.9,196 c4.4-5.3,8.9-10.6,13.4-15.9C254.7,176.2,259.2,172.3,263.6,168.4z M134.1,302.2c29.5-36.4,61.3-70.8,95.4-102.9 c-6.9,8.4-13.7,16.9-20.4,25.4L134.1,302.2z M181.5,267.6c9.6-13.3,19.5-26.5,29.5-39.4l71-73.4l8.2-8.4l-9.4,13.2 C245.6,193.6,212.4,229.6,181.5,267.6z M278.5,167.3l0.9-1.2c4-3.9,8-7.8,12.1-11.6c-6.6,7.1-13,14.4-19.3,21.8L278.5,167.3z M272.4,215.2L251.2,242c-11.3,11.6-22.2,23.4-32.7,35.4c-0.1-1.1-0.1-2.3-0.1-3.4C235.7,253.9,253.7,234.2,272.4,215.2L272.4,215.2 z M309.1,187.7c10.8-10.5,21.7-20.8,32.8-30.9c-4,4.5-8.1,9.1-12,13.7C322.8,176.2,315.9,181.9,309.1,187.7z M335.8,169.4 c16.6-13.1,33.8-25.8,51.6-37.9l-77.7,85c-18.9,18.9-36.8,38.9-54.4,59.1l-4.3,4.9l-2.8,3.1C275,243.8,304.3,205.6,335.8,169.4 L335.8,169.4z M248.2,289.8c3.3-3.9,6.7-7.8,10.1-11.7l1.1-1.3l49.4-54c8.9-9,17.9-17.8,27.2-26.3c4.5-4.2,9.2-8.3,13.9-12.3 c-4.7,6.2-9.3,12.5-13.9,18.9c-3.8,5.4-7.6,10.8-11.3,16.4L248.2,289.8z M381.4,172.2c-33.4,36.1-64,74.8-91.5,115.5 c10.2-22.4,22.3-44,35.9-64.5L381.4,172.2z M281,326.4l55.8-71.9c3.7-3.9,7.5-7.7,11.2-11.5c5.7-5,11.5-10,17.3-15 c10.6-9,21.5-17.8,32.6-26.4L281,326.4z M423.7,178.8l13.4-14.3l-6.5,9.5C428.3,175.6,426,177.2,423.7,178.8z M432.9,176.3 c3.6-2.4,7.2-4.8,10.9-7.2c-7.9,8.4-15.7,16.9-23.3,25.5C424.6,188.6,428.7,182.5,432.9,176.3z M293,377 c6.8-10.6,13.9-20.9,21.1-31.1L293,377z M444.7,217.5c-3.4,3.6-6.8,7.2-10.2,10.8l7.1-8.5L444.7,217.5z M397.1,273.1l18.9-22.6 c-3.7,4.8-7.3,9.6-10.7,14.6C402.5,267.8,399.8,270.5,397.1,273.1L397.1,273.1z M429.1,285.5l28.9-35.2l11.4-6.8 c-8.7,10.4-17.3,20.6-25.7,30.6L429.1,285.5z M470.6,257.6l-6.2,7.3L427.2,300c-0.2,0.2-0.2,0.4-0.1,0.7L410,316.9l29.3-34.8 L470.6,257.6z M437.8,292.5l16.2-15.4l-8.7,10.2C442.7,289,440.3,290.8,437.8,292.5L437.8,292.5z"/></g></svg>